<?xml version="1.0" standalone="no"?>
<!DOCTYPE svg PUBLIC "-//W3C//DTD SVG 20010904//EN"
 "http://www.w3.org/TR/2001/REC-SVG-20010904/DTD/svg10.dtd">
<svg version="1.0" xmlns="http://www.w3.org/2000/svg"
 width="700.000000pt" height="700.000000pt" viewBox="0 0 700.000000 700.000000"
 preserveAspectRatio="xMidYMid meet">
<metadata>
Created by potrace 1.14, written by Peter Selinger 2001-2017
</metadata>
<g transform="translate(0.000000,700.000000) scale(0.100000,-0.100000)"
fill="#000000" stroke="none">
<path d="M6077 6564 c-1 -1 -58 -5 -127 -8 -68 -4 -138 -9 -155 -11 -171 -24
-261 -37 -265 -40 -3 -2 -21 -6 -40 -9 -34 -6 -116 -26 -190 -47 -19 -5 -42
-11 -50 -13 -51 -13 -218 -73 -299 -108 -385 -163 -688 -366 -981 -658 -195
-193 -386 -439 -492 -630 l-25 -45 102 -120 c227 -270 406 -562 548 -896 41
-97 109 -286 127 -354 5 -16 20 -73 33 -125 34 -128 60 -252 72 -353 l7 -56
42 4 c22 3 55 8 71 11 17 4 37 8 45 9 110 13 469 118 587 171 28 13 54 24 58
24 13 0 221 104 312 156 142 82 307 196 425 293 147 120 363 342 464 476 21
28 41 52 44 55 14 11 150 219 207 315 135 231 290 631 328 846 3 19 10 52 15
74 9 40 21 107 25 135 1 8 5 44 10 80 4 36 9 74 11 85 10 48 12 345 4 390 -34
174 -194 321 -371 341 -51 6 -536 13 -542 8z"/>
<path d="M330 5672 c-131 -34 -229 -116 -289 -242 l-36 -75 0 -160 c1 -173 8
-278 31 -415 3 -19 8 -46 10 -60 89 -527 348 -1072 698 -1470 224 -255 418
-419 738 -624 67 -43 327 -174 408 -206 214 -85 455 -156 625 -183 17 -3 59
-10 95 -16 36 -5 97 -13 135 -16 39 -4 86 -8 105 -10 19 -2 74 -5 123 -6 81
-1 87 -3 88 -23 0 -11 1 -315 1 -674 1 -360 5 -675 10 -700 48 -260 326 -416
580 -326 130 46 250 183 276 317 9 46 8 2007 -1 2099 -24 246 -58 422 -123
635 -270 891 -938 1613 -1814 1961 -135 54 -398 131 -500 147 -19 3 -55 10
-80 15 -25 5 -61 11 -80 14 -19 2 -55 7 -80 11 -25 3 -65 8 -90 11 -25 3 -207
7 -405 9 -311 3 -369 1 -425 -13z"/>
</g>
</svg>
